<svg xmlns="http://www.w3.org/2000/svg" xmlns:xlink="http://www.w3.org/1999/xlink" id="Layer_1" x="0px" y="0px" viewBox="0 0 342 219.6" style="enable-background:new 0 0 342 219.6;" xml:space="preserve"><style type="text/css">	.st0{fill:#1D2255;}	.st1{opacity:0.05;}	.st2{fill:#FFFFFF;}	.st3{fill:#E01960;}	.st4{fill:#E67725;}	.st5{fill:#5CBA47;}	.st6{fill:#F89524;}	.st7{fill:#06A2DC;}	.st8{fill:#14A2DC;}	.st9{fill:#242964;}	.st10{fill:#0B93CF;}	.st11{fill:#BB1E73;}	.st12{fill:#F99F23;}	.st13{fill:#1E2A5B;}	.st14{fill:#121A42;}	.st15{fill:#EE1C49;}	.st16{fill:#29AAE2;}	.st17{fill:#E01D53;}	.st18{fill:#F9A12E;}	.st19{fill:#ED1C53;}	.st20{fill:#ED1D60;}	.st21{fill:#EE1D4E;}	.st22{fill:#EE2234;}	.st23{fill:#2795D2;}	.st24{opacity:0.1;}	.st25{fill:#EC2061;}	.st26{fill:#231F20;stroke:#4D4D4E;stroke-width:0.5;stroke-miterlimit:10;}	.st27{clip-path:url(#SVGID_00000160893157272881615530000001908967509735738000_);}			.st28{clip-path:url(#SVGID_00000160893157272881615530000001908967509735738000_);fill:none;stroke:#000000;stroke-width:0.5;stroke-dasharray:2,2;}	.st29{clip-path:url(#SVGID_00000012459591616531541340000007814814852073585300_);}	.st30{clip-path:url(#SVGID_00000012459591616531541340000007814814852073585300_);fill:#FFFFFF;}	.st31{clip-path:url(#SVGID_00000131358585314638426150000005385659626937356689_);fill:none;stroke:#000000;}	.st32{clip-path:url(#SVGID_00000100350437556064348180000003778440361449901749_);}			.st33{clip-path:url(#SVGID_00000100350437556064348180000003778440361449901749_);fill:none;stroke:#000000;stroke-width:0.5;stroke-dasharray:2,2;}	.st34{clip-path:url(#SVGID_00000062912951343576992370000013659707917135335846_);}	.st35{clip-path:url(#SVGID_00000062912951343576992370000013659707917135335846_);fill:#FFFFFF;}	.st36{clip-path:url(#SVGID_00000021097802248021896270000003075169199196630657_);fill:none;stroke:#000000;}	.st37{opacity:0.5;fill:#ED1D60;}	.st38{opacity:0.5;fill:#14A2DC;}	.st39{opacity:0.5;fill:#F89524;}	.st40{opacity:0.6;fill:#1D2255;}</style><path class="st20" d="M96.11,53.61l-31.19,3.83c-6.95,0.85-11.62,8.67-8.84,14.8l9.22,20.31l29.49,64.3l45.93-5.64L96.11,53.61z"></path><path class="st20" d="M71.72,148.93l-7.06,11.62L18,166.28l38.01-67.52l16.85,36.95C74.7,139.75,74.27,144.74,71.72,148.93z"></path><path class="st8" d="M241.59,102.56c-0.54-4.35-2.01-8.39-4.4-12.12c-2.4-3.72-5.84-6.75-10.35-9.08c2.55-5.38,3.65-10.63,3.3-15.75 c-0.34-5.12-1.79-9.66-4.33-13.62c-2.55-3.95-5.99-7.01-10.35-9.16c-4.35-2.14-9.32-2.87-14.89-2.19l-9.98,1.23l0,103.22l19.52-2.4 c5.29-0.65,9.98-2.29,14.09-4.93c4.11-2.63,7.53-5.84,10.27-9.6c2.74-3.76,4.74-7.88,6.02-12.36 C241.75,111.32,242.12,106.91,241.59,102.56z"></path><path class="st8" d="M178.62,43.34l0,103.22l-32.86,4.03l0-85.77c0-9.64,7.7-18.4,17.19-19.56L178.62,43.34z"></path><path class="st6" d="M324.13,26.2l0,43.03l-32.44,3.98c-3.19,0.39-5.81,3.61-6.03,7.3c-0.01,0.16-0.01,0.33-0.01,0.49 c0,0.12,0,0.24,0.01,0.36c0.16,3.71,2.81,6.34,6.04,5.95l32.44-3.98l0,45.36l-29.73,3.65c-7,0.86-13.56,0.33-19.69-1.59 c-6.13-1.91-11.48-4.9-16.05-8.99c-4.57-4.08-8.18-9.07-10.8-14.97c-2.63-5.9-3.94-12.4-3.94-19.51c0-7.11,1.31-13.94,3.94-20.48 c2.62-6.54,6.23-12.44,10.8-17.69c4.57-5.25,9.92-9.59,16.05-13c6.13-3.42,12.69-5.56,19.69-6.42L324.13,26.2z"></path><g>	<path class="st2" d="M71.8,178.29l-6.32,15.75l-4.11,0.5l-6.3-14.2l4.51-0.55l4.01,9.26l4.09-10.26L71.8,178.29z"></path>	<path class="st2" d="M94.7,187.54l-6.24,0.77l-1.16,3.05l-4.26,0.52l6.51-15.77l4.11-0.5l6.54,14.17l-4.34,0.53L94.7,187.54z   M93.47,184.57l-1.9-4.56l-1.9,5.03L93.47,184.57z"></path>	<path class="st2" d="M128.07,171.38v14.97l-3.44,0.42l-6.51-7.18v7.98l-4.09,0.5V173.1l3.44-0.42l6.51,7.18v-7.98L128.07,171.38z"></path>	<path class="st2" d="M142.91,177.04c0-4.56,3.44-8.21,8.12-8.78c2.72-0.33,4.91,0.4,6.35,2.04l-2.66,2.76  c-0.93-1.02-2.07-1.5-3.48-1.33c-2.42,0.3-4.11,2.22-4.11,4.78s1.69,4.07,4.11,3.77c1.41-0.17,2.55-0.93,3.48-2.18l2.66,2.11  c-1.43,2-3.63,3.27-6.35,3.6C146.35,184.41,142.91,181.6,142.91,177.04z"></path>	<path class="st2" d="M170.8,173.62c0-4.49,3.48-8.21,8.2-8.79s8.2,2.29,8.2,6.78s-3.48,8.21-8.2,8.79S170.8,178.11,170.8,173.62z   M182.99,172.12c0-2.59-1.75-4.06-3.98-3.79c-2.24,0.27-3.98,2.18-3.98,4.77c0,2.59,1.75,4.06,3.98,3.79  C181.24,176.62,182.99,174.71,182.99,172.12z"></path>	<path class="st2" d="M201.92,170.61v-8.3l4.17-0.51v8.17c0,2.57,1.05,3.46,2.8,3.25c1.73-0.21,2.78-1.37,2.78-3.94v-8.17l4.11-0.5  v8.3c0,4.47-2.57,7.29-6.94,7.83C204.49,177.27,201.92,175.08,201.92,170.61z"></path>	<path class="st2" d="M246.23,156.87l-6.32,15.75l-4.11,0.5l-6.3-14.2l4.51-0.55l4.01,9.26l4.09-10.26L246.23,156.87z"></path>	<path class="st2" d="M271.59,165.46v3.27l-11.85,1.46v-14.97l11.57-1.42v3.27l-7.44,0.91v2.52l6.56-0.8v3.17l-6.56,0.8v2.74  L271.59,165.46z"></path>	<path class="st2" d="M293.01,162.12l-2.28,0.28v3.98l-4.17,0.51v-14.97l6.75-0.83c4.03-0.49,6.56,1.31,6.56,4.74  c0,2.2-1.05,3.96-2.89,5.08l3.18,4.31l-4.47,0.55L293.01,162.12z M293.06,154.46l-2.32,0.28v4.39l2.32-0.28  c1.73-0.21,2.59-1.13,2.59-2.5C295.65,154.95,294.78,154.24,293.06,154.46z"></path></g></svg>