<svg xmlns="http://www.w3.org/2000/svg" xmlns:xlink="http://www.w3.org/1999/xlink" id="Layer_1" x="0px" y="0px" viewBox="0 0 306.13 170.28" style="enable-background:new 0 0 306.13 170.28;" xml:space="preserve"><style type="text/css">	.st0{fill:#1D2255;}	.st1{fill:#FFFFFF;}	.st2{fill:#E01960;}	.st3{fill:#E67725;}	.st4{fill:#5CBA47;}	.st5{fill:#F89524;}	.st6{fill:#06A2DC;}	.st7{fill:#14A2DC;}	.st8{fill:#242964;}	.st9{fill:#0B93CF;}	.st10{fill:#BB1E73;}	.st11{fill:#F99F23;}	.st12{fill:#1E2A5B;}	.st13{fill:#121A42;}	.st14{fill:#EE1C49;}	.st15{fill:#29AAE2;}	.st16{fill:#E01D53;}	.st17{fill:#F9A12E;}	.st18{fill:#ED1C53;}	.st19{fill:#ED1D60;}	.st20{fill:#EE1D4E;}	.st21{fill:#EE2234;}	.st22{fill:#2795D2;}	.st23{opacity:0.1;}	.st24{fill:#EC2061;}	.st25{fill:#231F20;stroke:#4D4D4E;stroke-width:0.5;stroke-miterlimit:10;}	.st26{clip-path:url(#SVGID_2_);}	.st27{clip-path:url(#SVGID_2_);fill:none;stroke:#000000;stroke-width:0.5;stroke-dasharray:2,2;}	.st28{clip-path:url(#SVGID_4_);}	.st29{clip-path:url(#SVGID_4_);fill:#FFFFFF;}	.st30{clip-path:url(#SVGID_6_);fill:none;stroke:#000000;}	.st31{clip-path:url(#SVGID_8_);}	.st32{clip-path:url(#SVGID_8_);fill:none;stroke:#000000;stroke-width:0.5;stroke-dasharray:2,2;}	.st33{clip-path:url(#SVGID_10_);}	.st34{clip-path:url(#SVGID_10_);fill:#FFFFFF;}	.st35{clip-path:url(#SVGID_12_);fill:none;stroke:#000000;}</style><path class="st19" d="M78.11,28.41l-31.19,3.83c-6.95,0.85-11.62,8.67-8.84,14.8l9.22,20.31l29.49,64.3l45.93-5.64L78.11,28.41z"></path><path class="st19" d="M53.72,123.73l-7.06,11.62L0,141.08l38.01-67.52l16.85,36.95C56.7,114.55,56.27,119.54,53.72,123.73z"></path><path class="st7" d="M223.59,77.36c-0.54-4.35-2.01-8.39-4.4-12.12c-2.4-3.72-5.84-6.75-10.35-9.08c2.55-5.38,3.65-10.63,3.3-15.75 c-0.34-5.12-1.79-9.66-4.33-13.62c-2.55-3.95-5.99-7.01-10.35-9.16c-4.35-2.14-9.32-2.87-14.89-2.19l-9.98,1.23l0,103.22l19.52-2.4 c5.29-0.65,9.98-2.29,14.09-4.93c4.11-2.63,7.53-5.84,10.27-9.6c2.74-3.76,4.74-7.88,6.02-12.36 C223.75,86.12,224.12,81.71,223.59,77.36z"></path><path class="st7" d="M160.62,18.14l0,103.22l-32.86,4.03l0-85.77c0-9.64,7.7-18.4,17.19-19.56L160.62,18.14z"></path><path class="st5" d="M306.13,1l0,43.03l-32.44,3.98c-3.19,0.39-5.81,3.61-6.03,7.3c-0.01,0.16-0.01,0.33-0.01,0.49 c0,0.12,0,0.24,0.01,0.36c0.16,3.71,2.81,6.34,6.04,5.95l32.44-3.98l0,45.36l-29.73,3.65c-7,0.86-13.56,0.33-19.69-1.59 c-6.13-1.91-11.48-4.9-16.05-8.99c-4.57-4.08-8.18-9.07-10.8-14.97c-2.63-5.9-3.94-12.4-3.94-19.51c0-7.11,1.31-13.94,3.94-20.48 c2.62-6.54,6.23-12.44,10.8-17.69c4.57-5.25,9.92-9.59,16.05-13c6.13-3.42,12.69-5.56,19.69-6.42L306.13,1z"></path><g>	<path class="st0" d="M53.8,153.09l-6.32,15.75l-4.11,0.5l-6.3-14.2l4.51-0.55l4.01,9.26l4.09-10.26L53.8,153.09z"></path>	<path class="st0" d="M76.7,162.34l-6.24,0.77l-1.16,3.05l-4.26,0.52l6.51-15.77l4.11-0.5l6.54,14.17l-4.34,0.53L76.7,162.34z   M75.47,159.37l-1.9-4.56l-1.9,5.03L75.47,159.37z"></path>	<path class="st0" d="M110.07,146.18v14.97l-3.44,0.42l-6.51-7.18v7.98l-4.09,0.5V147.9l3.44-0.42l6.51,7.18v-7.98L110.07,146.18z"></path>	<path class="st0" d="M124.91,151.84c0-4.56,3.44-8.21,8.12-8.78c2.72-0.33,4.91,0.4,6.35,2.04l-2.66,2.76  c-0.93-1.02-2.07-1.5-3.48-1.33c-2.42,0.3-4.11,2.22-4.11,4.78s1.69,4.07,4.11,3.77c1.41-0.17,2.55-0.93,3.48-2.18l2.66,2.11  c-1.43,2-3.63,3.27-6.35,3.6C128.35,159.21,124.91,156.4,124.91,151.84z"></path>	<path class="st0" d="M152.8,148.42c0-4.49,3.48-8.21,8.2-8.79s8.2,2.29,8.2,6.78s-3.48,8.21-8.2,8.79S152.8,152.91,152.8,148.42z   M164.99,146.92c0-2.59-1.75-4.06-3.98-3.79c-2.24,0.27-3.98,2.18-3.98,4.77c0,2.59,1.75,4.06,3.98,3.79  C163.24,151.42,164.99,149.51,164.99,146.92z"></path>	<path class="st0" d="M183.92,145.41v-8.3l4.17-0.51v8.17c0,2.57,1.05,3.46,2.8,3.25c1.73-0.21,2.78-1.37,2.78-3.94v-8.17l4.11-0.5  v8.3c0,4.47-2.57,7.29-6.94,7.83C186.49,152.07,183.92,149.88,183.92,145.41z"></path>	<path class="st0" d="M228.23,131.67l-6.32,15.75l-4.11,0.5l-6.3-14.2l4.51-0.55l4.01,9.26l4.09-10.26L228.23,131.67z"></path>	<path class="st0" d="M253.59,140.26v3.27l-11.85,1.46v-14.97l11.57-1.42v3.27l-7.44,0.91v2.52l6.56-0.8v3.17l-6.56,0.8v2.74  L253.59,140.26z"></path>	<path class="st0" d="M275.01,136.92l-2.28,0.28v3.98l-4.17,0.51v-14.97l6.75-0.83c4.03-0.49,6.56,1.31,6.56,4.74  c0,2.2-1.05,3.96-2.89,5.08l3.18,4.31l-4.47,0.55L275.01,136.92z M275.06,129.26l-2.32,0.28v4.39l2.32-0.28  c1.73-0.21,2.59-1.13,2.59-2.5C277.65,129.75,276.78,129.04,275.06,129.26z"></path></g></svg>