<?xml version="1.0" encoding="utf-8"?>
<!-- Generator: Adobe Illustrator 25.2.3, SVG Export Plug-In . SVG Version: 6.00 Build 0)  -->
<svg version="1.1" id="Layer_1" xmlns="http://www.w3.org/2000/svg" xmlns:xlink="http://www.w3.org/1999/xlink" x="0px" y="0px"
	 viewBox="0 0 288 158.4" style="enable-background:new 0 0 288 158.4;" xml:space="preserve">
<style type="text/css">
	.st0{fill:#1D2255;}
	.st1{fill:#FFFFFF;}
	.st2{fill:#E01960;}
	.st3{fill:#E67725;}
	.st4{fill:#5CBA47;}
	.st5{fill:#F89524;}
	.st6{fill:#06A2DC;}
	.st7{fill:#14A2DC;}
	.st8{fill:#242964;}
	.st9{fill:#0B93CF;}
	.st10{fill:#BB1E73;}
	.st11{fill:#F99F23;}
	.st12{fill:#1E2A5B;}
	.st13{fill:#121A42;}
	.st14{fill:#EE1C49;}
	.st15{fill:#29AAE2;}
	.st16{fill:#E01D53;}
	.st17{fill:#F9A12E;}
	.st18{fill:#ED1C53;}
	.st19{fill:#ED1D60;}
	.st20{fill:#EE1D4E;}
	.st21{fill:#EE2234;}
	.st22{fill:#2795D2;}
	.st23{opacity:0.1;}
	.st24{fill:#EC2061;}
	.st25{fill:#231F20;stroke:#4D4D4E;stroke-width:0.5;stroke-miterlimit:10;}
	.st26{font-family:'Montserrat-ExtraBold';}
	.st27{font-size:20.1052px;}
	.st28{letter-spacing:11.08;}
</style>
<g>
	<path class="st2" d="M73.46,25.7l-29.33,3.6c-6.54,0.8-10.93,8.15-8.32,13.92l8.67,19.1l27.74,60.47l43.19-5.3L73.46,25.7z"/>
	<path class="st2" d="M50.53,115.34l-6.64,10.92l-43.88,5.39l35.74-63.5l15.84,34.75C53.33,106.71,52.93,111.39,50.53,115.34z"/>
	<path class="st7" d="M210.27,71.73c-0.51-4.09-1.89-7.89-4.14-11.4c-2.25-3.5-5.5-6.35-9.73-8.54c2.39-5.06,3.43-9.99,3.11-14.81
		c-0.32-4.81-1.68-9.09-4.07-12.81c-2.39-3.72-5.64-6.59-9.73-8.61c-4.09-2.01-8.76-2.7-14.01-2.06l-9.39,1.15l0,97.07l18.36-2.25
		c4.97-0.61,9.38-2.15,13.25-4.64c3.86-2.48,7.08-5.49,9.66-9.03c2.58-3.54,4.46-7.41,5.66-11.62
		C210.43,79.97,210.77,75.82,210.27,71.73z"/>
	<path class="st7" d="M151.06,16.04l0,97.07l-30.9,3.79l0-80.65c0-9.06,7.24-17.3,16.17-18.4L151.06,16.04z"/>
	<path class="st5" d="M287.89-0.08l0,40.46l-30.5,3.75c-3,0.37-5.46,3.39-5.67,6.87c-0.01,0.15-0.01,0.31-0.01,0.47
		c0,0.12,0,0.23,0.01,0.34c0.15,3.49,2.64,5.97,5.68,5.59l30.5-3.75V96.3l-27.96,3.43c-6.59,0.81-12.76,0.31-18.52-1.49
		c-5.76-1.8-10.8-4.61-15.09-8.45c-4.3-3.84-7.69-8.53-10.16-14.08c-2.47-5.55-3.7-11.66-3.7-18.34c0-6.68,1.23-13.11,3.7-19.26
		c2.47-6.15,5.85-11.7,10.16-16.63c4.29-4.94,9.33-9.02,15.09-12.23c5.76-3.22,11.93-5.23,18.52-6.03L287.89-0.08z"/>
</g>
<g>
	<text transform="matrix(0.9852 -0.121 0 1 35.1079 158.8474)" class="st0 st26 st27 st28">VANCOUVER</text>
</g>
</svg>
