<?xml version="1.0" encoding="utf-8"?>
<!-- Generator: Adobe Illustrator 25.2.3, SVG Export Plug-In . SVG Version: 6.00 Build 0)  -->
<svg version="1.1" id="Layer_1" xmlns="http://www.w3.org/2000/svg" xmlns:xlink="http://www.w3.org/1999/xlink" x="0px" y="0px"
	 viewBox="0 0 288 136.8" style="enable-background:new 0 0 288 136.8;" xml:space="preserve">
<style type="text/css">
	.st0{fill:#1D2255;}
	.st1{fill:#FFFFFF;}
	.st2{fill:#E01960;}
	.st3{fill:#E67725;}
	.st4{fill:#5CBA47;}
	.st5{fill:#F89524;}
	.st6{fill:#06A2DC;}
	.st7{fill:#14A2DC;}
	.st8{fill:#242964;}
	.st9{fill:#0B93CF;}
	.st10{fill:#BB1E73;}
	.st11{fill:#F99F23;}
	.st12{fill:#1E2A5B;}
	.st13{fill:#121A42;}
	.st14{fill:#EE1C49;}
	.st15{fill:#29AAE2;}
	.st16{fill:#E01D53;}
	.st17{fill:#F9A12E;}
	.st18{fill:#ED1C53;}
	.st19{fill:#ED1D60;}
	.st20{fill:#EE1D4E;}
	.st21{fill:#EE2234;}
	.st22{fill:#2795D2;}
	.st23{opacity:0.1;}
	.st24{fill:#EC2061;}
	.st25{fill:#231F20;stroke:#4D4D4E;stroke-width:0.5;stroke-miterlimit:10;}
</style>
<g>
	<path class="st1" d="M74.53,25.77l-29.2,3.59c-6.51,0.8-10.88,8.12-8.28,13.85l8.63,19.01l27.61,60.2l43-5.28L74.53,25.77z"/>
	<path class="st1" d="M51.7,115.01l-6.61,10.87l-43.68,5.36l35.58-63.21l15.77,34.59C54.49,106.42,54.09,111.08,51.7,115.01z"/>
	<path class="st1" d="M210.72,71.6c-0.5-4.08-1.88-7.86-4.12-11.35c-2.24-3.49-5.47-6.32-9.68-8.5c2.38-5.03,3.41-9.95,3.09-14.74
		c-0.32-4.79-1.67-9.05-4.05-12.75c-2.38-3.7-5.61-6.56-9.69-8.57c-4.08-2.01-8.72-2.69-13.94-2.05l-9.35,1.15l0,96.63l18.27-2.24
		c4.95-0.61,9.34-2.14,13.19-4.62c3.84-2.47,7.05-5.46,9.61-8.99c2.57-3.52,4.44-7.38,5.63-11.57
		C210.88,79.8,211.23,75.67,210.72,71.6z"/>
	<path class="st1" d="M151.78,16.15l0,96.63l-30.76,3.78l0-80.29c0-9.02,7.21-17.22,16.1-18.32L151.78,16.15z"/>
	<path class="st1" d="M288,0.11v40.28l-30.37,3.73c-2.99,0.37-5.44,3.38-5.65,6.84c-0.01,0.15-0.01,0.31-0.01,0.46
		c0,0.12,0,0.23,0.01,0.34c0.15,3.47,2.63,5.94,5.65,5.57L288,53.6l0,42.46l-27.83,3.42c-6.56,0.8-12.7,0.31-18.44-1.49
		c-5.74-1.79-10.75-4.59-15.02-8.41c-4.28-3.82-7.65-8.49-10.11-14.01c-2.46-5.52-3.69-11.61-3.69-18.26
		c0-6.65,1.23-13.05,3.69-19.17c2.46-6.13,5.83-11.64,10.11-16.56c4.28-4.91,9.29-8.98,15.02-12.17c5.74-3.2,11.88-5.2,18.44-6.01
		L288,0.11z"/>
</g>
</svg>
